{
  "accessors": [
    {
      "bufferView": 2,
      "componentType": 5126,
      "count": 65532,
      "max": [
        0.15579663217067719,
        0.5000107288360596,
        0.00496593676507473
      ],
      "min": [
        -0.15581020712852478,
        -0.5,
        -0.4170614182949066
      ],
      "type": "VEC3"
    },
    {
      "bufferView": 2,
      "byteOffset": 786384,
      "componentType": 5126,
      "count": 65532,
      "max": [
        1.0,
        1.0,
        1.0
      ],
      "min": [
        -1.0,
        -1.0,
        -1.0
      ],
      "type": "VEC3"
    },
    {
      "bufferView": 3,
      "componentType": 5126,
      "count": 65532,
      "max": [
        0.9999880194664001,
        0.9999998807907104,
        1.0,
        1.0
      ],
      "min": [
        -1.0,
        -0.9999998807907104,
        -0.9999945759773254,
        -1.0
      ],
      "type": "VEC4"
    },
    {
      "bufferView": 1,
      "componentType": 5126,
      "count": 65532,
      "max": [
        0.9958799481391907,
        0.9987040758132935
      ],
      "min": [
        0.012456496246159077,
        0.0021627938840538263
      ],
      "type": "VEC2"
    },
    {
      "bufferView": 1,
      "byteOffset": 524256,
      "componentType": 5126,
      "count": 65532,
      "max": [
        0.9958799481391907,
        0.9987040758132935
      ],
      "min": [
        0.012456496246159077,
        0.0021627938840538263
      ],
      "type": "VEC2"
    },
    {
      "bufferView": 1,
      "byteOffset": 1048512,
      "componentType": 5126,
      "count": 65532,
      "max": [
        0.9958799481391907,
        0.9987040758132935
      ],
      "min": [
        0.012456496246159077,
        0.0021627938840538263
      ],
      "type": "VEC2"
    },
    {
      "bufferView": 1,
      "byteOffset": 1572768,
      "componentType": 5126,
      "count": 65532,
      "max": [
        0.9958799481391907,
        0.9987040758132935
      ],
      "min": [
        0.012456496246159077,
        0.0021627938840538263
      ],
      "type": "VEC2"
    },
    {
      "bufferView": 0,
      "componentType": 5125,
      "count": 367224,
      "type": "SCALAR"
    },
    {
      "bufferView": 2,
      "byteOffset": 1572768,
      "componentType": 5126,
      "count": 65532,
      "max": [
        0.15579663217067719,
        0.5000107288360596,
        0.4170438349246979
      ],
      "min": [
        -0.1349346786737442,
        -0.5,
        -0.11827288568019867
      ],
      "type": "VEC3"
    },
    {
      "bufferView": 2,
      "byteOffset": 2359152,
      "componentType": 5126,
      "count": 65532,
      "max": [
        1.0,
        1.0,
        1.0
      ],
      "min": [
        -1.0,
        -1.0,
        -1.0
      ],
      "type": "VEC3"
    },
    {
      "bufferView": 3,
      "byteOffset": 1048512,
      "componentType": 5126,
      "count": 65532,
      "max": [
        0.9998623132705688,
        0.9999998211860657,
        1.0,
        1.0
      ],
      "min": [
        -0.999974250793457,
        -1.0,
        -0.99998939037323,
        -1.0
      ],
      "type": "VEC4"
    },
    {
      "bufferView": 1,
      "byteOffset": 2097024,
      "componentType": 5126,
      "count": 65532,
      "max": [
        0.9958799481391907,
        0.9999247193336487
      ],
      "min": [
        5.4271891713142395e-05,
        0.0002097487449645996
      ],
      "type": "VEC2"
    },
    {
      "bufferView": 1,
      "byteOffset": 2621280,
      "componentType": 5126,
      "count": 65532,
      "max": [
        0.9958799481391907,
        0.9999247193336487
      ],
      "min": [
        5.4271891713142395e-05,
        0.0002097487449645996
      ],
      "type": "VEC2"
    },
    {
      "bufferView": 1,
      "byteOffset": 3145536,
      "componentType": 5126,
      "count": 65532,
      "max": [
        0.9958799481391907,
        0.9999247193336487
      ],
      "min": [
        5.4271891713142395e-05,
        0.0002097487449645996
      ],
      "type": "VEC2"
    },
    {
      "bufferView": 1,
      "byteOffset": 3669792,
      "componentType": 5126,
      "count": 65532,
      "max": [
        0.9958799481391907,
        0.9999247193336487
      ],
      "min": [
        5.4271891713142395e-05,
        0.0002097487449645996
      ],
      "type": "VEC2"
    },
    {
      "bufferView": 0,
      "byteOffset": 1468896,
      "componentType": 5125,
      "count": 361071,
      "type": "SCALAR"
    },
    {
      "bufferView": 2,
      "byteOffset": 3145536,
      "componentType": 5126,
      "count": 8079,
      "max": [
        0.15579663217067719,
        0.5000107288360596,
        0.08456148952245712
      ],
      "min": [
        -0.1513543277978897,
        -0.4758283495903015,
        -0.006204298697412014
      ],
      "type": "VEC3"
    },
    {
      "bufferView": 2,
      "byteOffset": 3242484,
      "componentType": 5126,
      "count": 8079,
      "max": [
        1.0,
        0.9998451471328735,
        1.0
      ],
      "min": [
        -0.9999690055847168,
        -1.0,
        -1.0
      ],
      "type": "VEC3"
    },
    {
      "bufferView": 3,
      "byteOffset": 2097024,
      "componentType": 5126,
      "count": 8079,
      "max": [
        0.9988858103752136,
        0.9999809861183167,
        0.9999657869338989,
        1.0
      ],
      "min": [
        -0.9999667406082153,
        -1.0,
        -0.99998939037323,
        -1.0
      ],
      "type": "VEC4"
    },
    {
      "bufferView": 1,
      "byteOffset": 4194048,
      "componentType": 5126,
      "count": 8079,
      "max": [
        0.9910163283348083,
        0.9969951510429382
      ],
      "min": [
        0.00807924009859562,
        0.004115839023143053
      ],
      "type": "VEC2"
    },
    {
      "bufferView": 1,
      "byteOffset": 4258680,
      "componentType": 5126,
      "count": 8079,
      "max": [
        0.9910163283348083,
        0.9969951510429382
      ],
      "min": [
        0.00807924009859562,
        0.004115839023143053
      ],
      "type": "VEC2"
    },
    {
      "bufferView": 1,
      "byteOffset": 4323312,
      "componentType": 5126,
      "count": 8079,
      "max": [
        0.9910163283348083,
        0.9969951510429382
      ],
      "min": [
        0.00807924009859562,
        0.004115839023143053
      ],
      "type": "VEC2"
    },
    {
      "bufferView": 1,
      "byteOffset": 4387944,
      "componentType": 5126,
      "count": 8079,
      "max": [
        0.9910163283348083,
        0.9969951510429382
      ],
      "min": [
        0.00807924009859562,
        0.004115839023143053
      ],
      "type": "VEC2"
    },
    {
      "bufferView": 0,
      "byteOffset": 2913180,
      "componentType": 5125,
      "count": 38652,
      "type": "SCALAR"
    }
  ],
  "asset": {
    "extras": {
      "author": "Chenzoss (https://sketchfab.com/Chenzoss)",
      "license": "CC-BY-4.0 (http://creativecommons.org/licenses/by/4.0/)",
      "source": "https://sketchfab.com/3d-models/usa-nasa-astronaut-aeb424ea4e214012898c7c7083b9464d",
      "title": "USA NASA Astronaut"
    },
    "generator": "Sketchfab-16.62.0",
    "version": "2.0"
  },
  "bufferViews": [
    {
      "buffer": 0,
      "byteLength": 3067788,
      "name": "floatBufferViews",
      "target": 34963
    },
    {
      "buffer": 0,
      "byteLength": 4452576,
      "byteOffset": 3067788,
      "byteStride": 8,
      "name": "floatBufferViews",
      "target": 34962
    },
    {
      "buffer": 0,
      "byteLength": 3339432,
      "byteOffset": 7520364,
      "byteStride": 12,
      "name": "floatBufferViews",
      "target": 34962
    },
    {
      "buffer": 0,
      "byteLength": 2226288,
      "byteOffset": 10859796,
      "byteStride": 16,
      "name": "floatBufferViews",
      "target": 34962
    }
  ],
  "buffers": [
    {
      "byteLength": 13086084,
      "uri": "scene.bin"
    }
  ],
  "images": [
    {
      "uri": "textures/tripo_material_59c9b224-e371-4d93-b883-20da2a3df2d5_baseColor.jpeg"
    },
    {
      "uri": "textures/tripo_material_59c9b224-e371-4d93-b883-20da2a3df2d5_metallicRoughness.png"
    },
    {
      "uri": "textures/tripo_material_59c9b224-e371-4d93-b883-20da2a3df2d5_normal.jpeg"
    }
  ],
  "materials": [
    {
      "name": "tripo_material_59c9b224-e371-4d93-b883-20da2a3df2d5",
      "normalTexture": {
        "index": 2,
        "texCoord": 2
      },
      "pbrMetallicRoughness": {
        "baseColorTexture": {
          "index": 0
        },
        "metallicRoughnessTexture": {
          "index": 1,
          "texCoord": 1
        }
      }
    }
  ],
  "meshes": [
    {
      "name": "Object_0",
      "primitives": [
        {
          "attributes": {
            "NORMAL": 1,
            "POSITION": 0,
            "TANGENT": 2,
            "TEXCOORD_0": 3,
            "TEXCOORD_1": 4,
            "TEXCOORD_2": 5,
            "TEXCOORD_3": 6
          },
          "indices": 7,
          "material": 0,
          "mode": 4
        }
      ]
    },
    {
      "name": "Object_1",
      "primitives": [
        {
          "attributes": {
            "NORMAL": 9,
            "POSITION": 8,
            "TANGENT": 10,
            "TEXCOORD_0": 11,
            "TEXCOORD_1": 12,
            "TEXCOORD_2": 13,
            "TEXCOORD_3": 14
          },
          "indices": 15,
          "material": 0,
          "mode": 4
        }
      ]
    },
    {
      "name": "Object_2",
      "primitives": [
        {
          "attributes": {
            "NORMAL": 17,
            "POSITION": 16,
            "TANGENT": 18,
            "TEXCOORD_0": 19,
            "TEXCOORD_1": 20,
            "TEXCOORD_2": 21,
            "TEXCOORD_3": 22
          },
          "indices": 23,
          "material": 0,
          "mode": 4
        }
      ]
    }
  ],
  "nodes": [
    {
      "children": [
        1
      ],
      "matrix": [
        1.0,
        0.0,
        0.0,
        0.0,
        0.0,
        2.220446049250313e-16,
        -1.0,
        0.0,
        0.0,
        1.0,
        2.220446049250313e-16,
        0.0,
        0.0,
        0.0,
        0.0,
        1.0
      ],
      "name": "Sketchfab_model"
    },
    {
      "children": [
        2
      ],
      "name": "root"
    },
    {
      "children": [
        3
      ],
      "matrix": [
        1.0,
        0.0,
        0.0,
        0.0,
        0.0,
        2.220446049250313e-16,
        1.0,
        0.0,
        0.0,
        -1.0,
        2.220446049250313e-16,
        0.0,
        0.0,
        0.0,
        0.0,
        1.0
      ],
      "name": "GLTF_SceneRootNode"
    },
    {
      "children": [
        4,
        5,
        6
      ],
      "name": "tripo_node_59c9b224-e371-4d93-b883-20da2a3df2d5_0"
    },
    {
      "mesh": 0,
      "name": "Object_4"
    },
    {
      "mesh": 1,
      "name": "Object_5"
    },
    {
      "mesh": 2,
      "name": "Object_6"
    }
  ],
  "samplers": [
    {
      "magFilter": 9729,
      "minFilter": 9987,
      "wrapS": 10497,
      "wrapT": 10497
    }
  ],
  "scene": 0,
  "scenes": [
    {
      "name": "Sketchfab_Scene",
      "nodes": [
        0
      ]
    }
  ],
  "textures": [
    {
      "sampler": 0,
      "source": 0
    },
    {
      "sampler": 0,
      "source": 1
    },
    {
      "sampler": 0,
      "source": 2
    }
  ]
}
